<svg width="42" height="42" xmlns="http://www.w3.org/2000/svg" xmlns:xlink="http://www.w3.org/1999/xlink" xml:space="preserve" overflow="hidden"><g transform="translate(-372 -252)"><path d="M398.106 293.326 398.106 292.076 398.027 292.076 398.027 293.326 395.618 293.326 395.618 292.076 395.538 292.076 395.538 293.326 393.129 293.326 393.129 292.076 393.05 292.076 393.05 293.326 390.64 293.326 390.64 292.076 390.561 292.076 390.561 293.326 388.142 293.326 388.142 292.076 381.667 292.076 381.667 293.326 373.924 293.326 373.924 267.18 372.496 267.18 372.496 264.771 374.092 264.771 374.092 254.766C374.098 253.609 375.037 252.674 376.194 252.674L411.402 252.674C412.559 252.674 413.499 253.609 413.504 254.766L413.504 289.984C413.504 291.14 412.568 292.076 411.412 292.076 411.409 292.076 411.406 292.076 411.402 292.076L400.496 292.076 400.496 293.326Z" fill="#FFFFFF"/><path d="M411.402 253.17C412.285 253.17 413.003 253.883 413.008 254.766L413.008 289.984C413.003 290.868 412.285 291.581 411.402 291.581L400.02 291.581 400.02 292.83 398.602 292.83 398.602 291.581 397.531 291.581 397.531 292.83 396.113 292.83 396.113 291.581 395.042 291.581 395.042 292.83 393.625 292.83 393.625 291.581 392.554 291.581 392.554 292.83 391.136 292.83 391.136 291.581 390.065 291.581 390.065 292.83 388.637 292.83 388.637 291.581 381.171 291.581 381.171 292.83 374.419 292.83 374.419 266.684 372.992 266.684 372.992 265.266 374.588 265.266 374.588 254.766C374.593 253.883 375.311 253.17 376.194 253.17L411.402 253.17M411.402 252.178 376.194 252.178C374.763 252.178 373.602 253.335 373.596 254.766L373.596 264.275 372 264.275 372 267.676 373.418 267.676 373.418 293.822 382.153 293.822 382.153 292.572 387.636 292.572 387.636 293.822 401.011 293.822 401.011 292.572 411.402 292.572C412.832 292.578 413.995 291.424 414 289.994 414 289.991 414 289.988 414 289.984L414 254.766C414 253.337 412.841 252.178 411.412 252.178 411.409 252.178 411.406 252.178 411.402 252.178Z" fill="#FFFFFF"/><path d="M411.402 253.17 376.194 253.17C375.311 253.17 374.593 253.883 374.588 254.766L374.588 264.017 376.016 264.017 376.016 254.766C376.021 254.67 376.098 254.593 376.194 254.588L411.402 254.588C411.499 254.593 411.576 254.67 411.581 254.766L411.581 289.984C411.581 290.083 411.501 290.163 411.402 290.163L404.65 290.163 404.65 291.581 411.402 291.581C412.285 291.581 413.003 290.868 413.008 289.984L413.008 254.766C413.003 253.883 412.285 253.17 411.402 253.17Z" fill="#2C5967"/><path d="M407.853 277.71 404.65 277.71 404.65 279.137 406.425 279.137 406.425 284.829 404.65 284.829 404.65 286.246 407.853 286.246 407.853 277.71Z" fill="#2C5967"/><path d="M379.932 258.504 379.932 264.017 381.171 264.017 381.35 264.017 381.35 259.932 387.041 259.932 387.041 265.445 388.469 265.445 388.469 258.504 379.932 258.504Z" fill="#2C5967"/><path d="M389.53 258.504 389.53 265.445 390.958 265.445 390.958 259.932 396.649 259.932 396.649 265.445 398.067 265.445 398.067 258.504 389.53 258.504Z" fill="#2C5967"/><path d="M407.674 258.504 399.137 258.504 399.137 265.445 400.555 265.445 400.555 259.932 406.246 259.932 406.246 265.623 404.65 265.623 404.65 266.684 404.65 267.041 407.674 267.041 407.674 258.504Z" fill="#2C5967"/><path d="M407.674 268.112 404.65 268.112 404.65 269.53 406.246 269.53 406.246 275.221 404.65 275.221 404.65 276.649 407.674 276.649 407.674 268.112Z" fill="#2C5967"/><path d="M376.908 272.732 378.683 272.732 378.683 274.507 376.908 274.507Z" fill="#2C5967"/><path d="M376.908 282.697 378.683 282.697 378.683 284.472 376.908 284.472Z" fill="#2C5967"/><path d="M403.401 266.684 381.171 266.684 381.171 265.266 372.992 265.266 372.992 266.684 374.409 266.684 374.409 292.83 381.171 292.83 381.171 291.412 383.66 291.412 383.66 290.341 388.618 290.341 388.618 292.83 390.045 292.83 390.045 290.341 391.136 290.341 391.136 292.83 392.554 292.83 392.554 290.341 393.625 290.341 393.625 292.83 395.042 292.83 395.042 290.341 396.113 290.341 396.113 292.83 397.531 292.83 397.531 290.341 398.602 290.341 398.602 292.83 400.02 292.83 400.02 290.341 403.401 290.341ZM398.067 268.112 401.983 268.112 401.983 288.933 382.242 288.933 382.242 290.004 381.171 290.004 381.171 268.112 398.027 268.112ZM375.837 266.684 379.803 266.684 379.803 291.412 375.837 291.412Z" fill="#2C5967"/><path d="M382.242 269.173 382.242 277.888 383.66 277.888 383.66 279.316 382.242 279.316 382.242 287.873 391.483 287.873 391.483 282.161 392.554 282.161 392.554 287.873 401.091 287.873 401.091 283.222 398.057 283.222C397.662 282.54 396.789 282.306 396.106 282.7 395.423 283.094 395.189 283.967 395.584 284.65 395.978 285.333 396.851 285.567 397.534 285.173 397.751 285.047 397.931 284.867 398.057 284.65L399.673 284.65 399.673 286.425 393.982 286.425 393.982 280.734 391.483 280.734 391.483 279.316 390.065 279.316 390.065 277.888 392.554 277.888 392.554 271.314 393.545 271.314 393.545 278.949 395.945 278.949 395.945 279.663 401.101 279.663 401.101 276.827 395.945 276.827 395.945 277.531 394.953 277.531 394.953 275.042 395.945 275.042 395.945 275.756 401.101 275.756 401.101 272.911 395.945 272.911 395.945 273.625 394.953 273.625 394.953 271.314 395.945 271.314 395.945 272.008 401.101 272.008 401.101 269.173 395.945 269.173 395.945 269.887 392.554 269.887 392.554 269.173ZM385.088 277.888 386.149 277.888 386.149 279.316 385.088 279.316ZM390.045 286.425 383.66 286.425 383.66 280.734 390.065 280.734ZM388.618 279.316 387.576 279.316 387.576 277.888 388.637 277.888ZM391.116 270.601 391.116 276.47 383.66 276.47 383.66 270.601Z" fill="#2C5967"/></g></svg>